<?xml version="1.0" encoding="utf-8"?>
<!-- Generator: Adobe Illustrator 23.0.3, SVG Export Plug-In . SVG Version: 6.00 Build 0)  -->
<svg version="1.0" id="Layer_1" xmlns="http://www.w3.org/2000/svg" xmlns:xlink="http://www.w3.org/1999/xlink" x="0px" y="0px"
	 viewBox="0 0 631.1 50" style="enable-background:new 0 0 631.1 50;" xml:space="preserve">
<style type="text/css">
	.st0{fill:#020202;}
</style>
<title>OFFICIAL_HELIOT_EMIL_LOGO_TM</title>
<desc>Created with Sketch.</desc>
<g>
	<polygon class="st0" points="10.5,1 10.5,19.3 29.7,19.3 29.7,1 40.4,1 40.4,48.8 29.7,48.8 29.7,28.3 10.5,28.3 10.5,48.8 0,48.8 
		0,1 	"/>
	<polygon class="st0" points="84.4,1 84.4,9.8 59,9.8 59,20.1 82.2,20.1 82.2,28.3 59,28.3 59,40 84.8,40 84.8,48.8 48.6,48.8 
		48.6,1 	"/>
	<polygon class="st0" points="101.6,1 101.6,40 125,40 125,48.8 91.2,48.8 91.2,1 	"/>
	<rect x="129.3" y="1" class="st0" width="10.5" height="47.7"/>
	<path class="st0" d="M147.5,15.2c1-3.1,2.7-5.7,4.7-8s4.5-4.1,7.4-5.3c2.9-1.2,6.1-1.8,9.8-1.8c3.7,0,7,0.6,9.8,1.8
		c2.9,1.2,5.3,3.1,7.4,5.3s3.5,4.9,4.7,8c1,3.1,1.6,6.4,1.6,10c0,3.5-0.6,6.8-1.6,9.8c-1,3.1-2.7,5.5-4.7,7.8
		c-2,2.3-4.5,3.9-7.4,5.3c-2.9,1.4-6.1,1.8-9.8,1.8c-3.7,0-7-0.6-9.8-1.8c-2.9-1.2-5.3-3.1-7.4-5.3c-2-2.3-3.5-4.9-4.7-7.8
		c-1.2-2.9-1.6-6.4-1.6-9.8C145.9,21.5,146.5,18.2,147.5,15.2 M157.2,30.9c0.4,1.8,1.2,3.7,2.3,5.1c1,1.4,2.5,2.7,4.1,3.7
		c1.6,0.8,3.7,1.4,5.9,1.4c2.5,0,4.3-0.4,5.9-1.4c1.6-0.8,3.1-2,4.1-3.7c1-1.4,1.8-3.3,2.3-5.1c0.4-1.8,0.6-3.9,0.6-5.9
		s-0.2-4.1-0.6-6.1c-0.4-2-1.2-3.7-2.3-5.3c-1-1.6-2.5-2.9-4.1-3.7c-1.6-0.8-3.7-1.4-5.9-1.4c-2.5,0-4.3,0.4-5.9,1.4
		c-1.6,0.8-3.1,2-4.1,3.7c-1,1.6-1.8,3.3-2.3,5.3s-0.6,3.9-0.6,6.1C156.4,27,156.8,29.1,157.2,30.9"/>
	<polygon class="st0" points="194.1,9.8 194.1,1 233.2,1 233.2,9.8 218.9,9.8 218.9,48.8 208.4,48.8 208.4,9.8 	"/>
	<polygon class="st0" points="419.9,1 419.9,9.8 394.7,9.8 394.7,20.1 417.8,20.1 417.8,28.3 394.7,28.3 394.7,40 420.5,40 
		420.5,48.8 384.2,48.8 384.2,1 	"/>
	<polygon class="st0" points="441.6,1 452.9,33.8 452.9,33.8 463.5,1 478.3,1 478.3,48.8 468.4,48.8 468.4,15 468.2,15 456.6,48.8 
		448.6,48.8 436.7,15.4 436.7,15.4 436.7,48.8 426.8,48.8 426.8,1 	"/>
	<rect x="486.5" y="1" class="st0" width="10.5" height="47.7"/>
	<polygon class="st0" points="516,1 516,40 539.1,40 539.1,48.8 505.3,48.8 505.3,1 	"/>
	<path class="st0" d="M588.1,6.4v22.1h-6.8V6.4h-7.8V1h22.5v5.3H588.1z M625,28.7V9.2h-0.2l-7.2,19.5h-4.7l-7.2-19.5h-0.2v19.5h-6.4
		V1h9l7,18.2l7-18.2h9v27.7H625z"/>
</g>
</svg>
